# xmcd
#
# Track frame offsets:
#	150
#	16545
#	29011
#	42407
#	54999
#	70593
#	80600
#	92276
#	106724
#	118971
#	131434
#	148076
#	158237
#	170366
#
# Disc length: 2417 seconds
#
# Revision: 1
# Processed by: cddbd v1.5PL3 Copyright (c) Steve Scherf et al.
# Submitted via: EasyCDDAExtractor 5.1.0
#
DISCID=ad096f0e
DTITLE=Άλκηστις Πρωτοψάλτη - 28 Μεγάλες Επιτυχίες - CD1
DYEAR=1900
DGENRE=
TTITLE0=Θα σε ξανάβρω στους μπαξέδες
TTITLE1=Στο σοκάκι που μεγάλωσες
TTITLE2=Την πόρτα ανοίγω το βράδυ
TTITLE3=Όσοι γυρνούν τσακισμένοι
TTITLE4=Στάθηκε απόψε το φεγγάρι
TTITLE5=Σε βρήκα στη Μονεμβασιά
TTITLE6=Μπορείς αν θέλεις
TTITLE7=Μοιρολόι της βροχής
TTITLE8=Ο αγέρας στους δρόμους
TTITLE9=Χάσαμε κάθε επαφή
TTITLE10=Στην Ιθάκη
TTITLE11=Σε λίγο θα νυχτώσει
TTITLE12=Τετάρτη βράδυ
TTITLE13=Με παγωνιές και θύελλες
EXTD=
EXTT0=
EXTT1=
EXTT2=
EXTT3=
EXTT4=
EXTT5=
EXTT6=
EXTT7=
EXTT8=
EXTT9=
EXTT10=
EXTT11=
EXTT12=
EXTT13=
PLAYORDER=
